<?xml version="1.0" encoding="UTF-8"?>
<svg width="24" height="24" viewBox="0 0 24 24" fill="none" xmlns="http://www.w3.org/2000/svg">
  <path d="M3 11C3 11 3 8 6 8H16C19 8 19 11 19 11V16C19 18.2 17.2 20 15 20H7C4.8 20 3 18.2 3 16V11Z" fill="#c2d29b"/>
  <path d="M11 3L13 3C14.1 3 15 3.9 15 5V8" stroke="#c2d29b" stroke-width="2" stroke-linecap="round"/>
  <circle cx="11" cy="5" r="1" fill="#c2d29b"/>
  <path d="M19 11H20C21.7 11 23 12.3 23 14C23 15.7 21.7 17 20 17H19" stroke="#c2d29b" stroke-width="2" fill="none"/>
  <path d="M6 12H16" stroke="#ffffff" stroke-width="1"/>
  <path d="M6 15H14" stroke="#ffffff" stroke-width="1"/>
</svg> 