<svg xmlns="http://www.w3.org/2000/svg" xmlns:xlink="http://www.w3.org/1999/xlink" width="500" zoomAndPan="magnify" viewBox="0 0 375 374.999991" height="500" preserveAspectRatio="xMidYMid meet" version="1.2"><defs/><g id="9448cf177c"><g style="fill:#c1d29b;fill-opacity:1;"><g transform="translate(11.3221, 239.845316)"><path style="stroke:none" d="M 123.171875 -79.0625 C 124.640625 -79.0625 125.375 -78.328125 125.375 -76.859375 C 125.375 -71.398438 123.675781 -66.273438 120.28125 -61.484375 C 116.882812 -56.691406 112.457031 -52.632812 107 -49.3125 C 106.207031 -42.65625 104.644531 -36.332031 102.3125 -30.34375 C 99.988281 -24.351562 96.863281 -19.09375 92.9375 -14.5625 C 89.007812 -10.039062 84.21875 -6.445312 78.5625 -3.78125 C 72.90625 -1.125 66.347656 0.203125 58.890625 0.203125 C 49.578125 0.203125 41.789062 -1.691406 35.53125 -5.484375 C 29.28125 -9.285156 24.253906 -14.242188 20.453125 -20.359375 C 16.660156 -26.484375 14 -33.367188 12.46875 -41.015625 C 10.945312 -48.671875 10.1875 -56.359375 10.1875 -64.078125 C 10.1875 -70.867188 10.679688 -77.425781 11.671875 -83.75 C 12.671875 -90.070312 13.96875 -95.691406 15.5625 -100.609375 C 17.164062 -105.535156 18.960938 -109.460938 20.953125 -112.390625 C 22.953125 -115.328125 24.953125 -116.796875 26.953125 -116.796875 C 28.679688 -116.796875 30.007812 -115.992188 30.9375 -114.390625 C 29.613281 -111.597656 28.351562 -108.269531 27.15625 -104.40625 C 25.957031 -100.550781 24.925781 -96.394531 24.0625 -91.9375 C 23.195312 -87.476562 22.53125 -82.785156 22.0625 -77.859375 C 21.59375 -72.929688 21.359375 -68.007812 21.359375 -63.09375 C 21.359375 -55.769531 21.988281 -48.613281 23.25 -41.625 C 24.519531 -34.632812 26.617188 -28.441406 29.546875 -23.046875 C 32.472656 -17.660156 36.332031 -13.300781 41.125 -9.96875 C 45.914062 -6.644531 51.835938 -4.984375 58.890625 -4.984375 C 64.210938 -4.984375 68.90625 -6.015625 72.96875 -8.078125 C 77.03125 -10.148438 80.523438 -12.914062 83.453125 -16.375 C 86.378906 -19.832031 88.773438 -23.957031 90.640625 -28.75 C 92.503906 -33.539062 93.898438 -38.597656 94.828125 -43.921875 C 89.773438 -42.453125 84.914062 -41.71875 80.25 -41.71875 C 73.46875 -41.71875 67.445312 -43.378906 62.1875 -46.703125 C 56.925781 -50.035156 52.5 -54.296875 48.90625 -59.484375 C 45.3125 -64.679688 42.582031 -70.472656 40.71875 -76.859375 C 38.863281 -83.242188 37.9375 -89.566406 37.9375 -95.828125 C 37.9375 -100.484375 38.46875 -104.941406 39.53125 -109.203125 C 40.59375 -113.460938 42.222656 -117.222656 44.421875 -120.484375 C 46.617188 -123.742188 49.378906 -126.335938 52.703125 -128.265625 C 56.035156 -130.191406 59.894531 -131.15625 64.28125 -131.15625 C 69.070312 -131.15625 74.03125 -129.660156 79.15625 -126.671875 C 84.28125 -123.679688 88.9375 -119.222656 93.125 -113.296875 C 97.320312 -107.367188 100.785156 -99.910156 103.515625 -90.921875 C 106.242188 -81.941406 107.609375 -71.46875 107.609375 -59.5 L 107.609375 -57.890625 C 109.734375 -60.285156 111.523438 -62.710938 112.984375 -65.171875 C 114.453125 -67.640625 115.71875 -69.90625 116.78125 -71.96875 C 117.851562 -74.03125 118.882812 -75.726562 119.875 -77.0625 C 120.875 -78.394531 121.972656 -79.0625 123.171875 -79.0625 Z M 80.0625 -46.71875 C 85.914062 -46.71875 91.101562 -47.648438 95.625 -49.515625 C 95.757812 -51.109375 95.859375 -52.703125 95.921875 -54.296875 C 95.992188 -55.898438 96.03125 -57.5 96.03125 -59.09375 C 96.03125 -70.539062 95.03125 -80.457031 93.03125 -88.84375 C 91.03125 -97.226562 88.5 -104.210938 85.4375 -109.796875 C 82.382812 -115.390625 78.957031 -119.550781 75.15625 -122.28125 C 71.363281 -125.007812 67.671875 -126.375 64.078125 -126.375 C 60.617188 -126.375 57.59375 -125.570312 55 -123.96875 C 52.40625 -122.375 50.207031 -120.179688 48.40625 -117.390625 C 46.613281 -114.597656 45.285156 -111.367188 44.421875 -107.703125 C 43.554688 -104.046875 43.125 -100.222656 43.125 -96.234375 C 43.125 -90.640625 43.953125 -84.914062 45.609375 -79.0625 C 47.273438 -73.207031 49.671875 -67.882812 52.796875 -63.09375 C 55.929688 -58.300781 59.789062 -54.375 64.375 -51.3125 C 68.96875 -48.25 74.195312 -46.71875 80.0625 -46.71875 Z M 80.0625 -46.71875 "/></g></g><g style="fill:#c1d29b;fill-opacity:1;"><g transform="translate(124.114322, 239.845316)"><path style="stroke:none" d="M 16.375 -135.15625 C 18.769531 -135.15625 20.695312 -134.289062 22.15625 -132.5625 C 23.625 -130.832031 24.820312 -128.535156 25.75 -125.671875 C 26.6875 -122.804688 27.320312 -119.578125 27.65625 -115.984375 C 27.988281 -112.390625 28.15625 -108.796875 28.15625 -105.203125 C 28.15625 -94.296875 27.320312 -83.75 25.65625 -73.5625 C 23.988281 -63.382812 21.425781 -53.703125 17.96875 -44.515625 C 18.226562 -38.929688 18.65625 -33.675781 19.25 -28.75 C 19.851562 -23.820312 20.585938 -19.523438 21.453125 -15.859375 C 22.328125 -12.203125 23.394531 -9.3125 24.65625 -7.1875 C 25.914062 -5.0625 27.347656 -4 28.953125 -4 C 31.878906 -4 34.109375 -5.628906 35.640625 -8.890625 C 37.171875 -12.148438 38.398438 -15.738281 39.328125 -19.65625 C 40.265625 -23.582031 41.03125 -27.175781 41.625 -30.4375 C 42.21875 -33.707031 43.050781 -35.34375 44.125 -35.34375 C 44.914062 -35.34375 45.3125 -34.675781 45.3125 -33.34375 C 45.3125 -30.945312 45.078125 -27.914062 44.609375 -24.25 C 44.148438 -20.59375 43.285156 -17 42.015625 -13.46875 C 40.753906 -9.945312 39.054688 -6.921875 36.921875 -4.390625 C 34.796875 -1.859375 32.070312 -0.59375 28.75 -0.59375 C 24.625 -0.59375 21.128906 -2.519531 18.265625 -6.375 C 15.398438 -10.238281 13.132812 -15.296875 11.46875 -21.546875 C 9.8125 -27.804688 8.613281 -34.960938 7.875 -43.015625 C 7.144531 -51.066406 6.78125 -59.285156 6.78125 -67.671875 C 6.78125 -76.054688 6.976562 -84.304688 7.375 -92.421875 C 7.78125 -100.546875 8.378906 -107.769531 9.171875 -114.09375 C 9.972656 -120.414062 10.972656 -125.503906 12.171875 -129.359375 C 13.367188 -133.222656 14.769531 -135.15625 16.375 -135.15625 Z M 24.15625 -105.015625 C 24.15625 -108.335938 24.054688 -111.492188 23.859375 -114.484375 C 23.660156 -117.484375 23.289062 -120.179688 22.75 -122.578125 C 22.21875 -124.972656 21.550781 -126.96875 20.75 -128.5625 C 19.957031 -130.164062 18.960938 -131.164062 17.765625 -131.5625 C 17.628906 -122.507812 17.492188 -113.554688 17.359375 -104.703125 C 17.234375 -95.859375 17.171875 -87.046875 17.171875 -78.265625 C 17.171875 -74.265625 17.171875 -70.164062 17.171875 -65.96875 C 17.171875 -61.78125 17.300781 -57.691406 17.5625 -53.703125 C 19.695312 -61.953125 21.328125 -70.46875 22.453125 -79.25 C 23.585938 -88.039062 24.15625 -96.628906 24.15625 -105.015625 Z M 24.15625 -105.015625 "/></g></g><g style="fill:#c1d29b;fill-opacity:1;"><g transform="translate(155.855846, 239.845316)"><path style="stroke:none" d="M 18.359375 -41.921875 C 18.359375 -36.734375 18.554688 -31.84375 18.953125 -27.25 C 19.359375 -22.65625 19.992188 -18.628906 20.859375 -15.171875 C 21.722656 -11.710938 22.820312 -8.984375 24.15625 -6.984375 C 25.488281 -4.992188 27.085938 -4 28.953125 -4 C 31.878906 -4 34.109375 -5.628906 35.640625 -8.890625 C 37.171875 -12.148438 38.398438 -15.738281 39.328125 -19.65625 C 40.265625 -23.582031 41.03125 -27.175781 41.625 -30.4375 C 42.21875 -33.707031 43.050781 -35.34375 44.125 -35.34375 C 44.914062 -35.34375 45.3125 -34.675781 45.3125 -33.34375 C 45.3125 -30.945312 45.078125 -27.914062 44.609375 -24.25 C 44.148438 -20.59375 43.285156 -17 42.015625 -13.46875 C 40.753906 -9.945312 39.054688 -6.921875 36.921875 -4.390625 C 34.796875 -1.859375 32.070312 -0.59375 28.75 -0.59375 C 25.019531 -0.59375 21.789062 -1.988281 19.0625 -4.78125 C 16.332031 -7.582031 14.101562 -11.242188 12.375 -15.765625 C 10.644531 -20.296875 9.378906 -25.320312 8.578125 -30.84375 C 7.785156 -36.363281 7.390625 -41.921875 7.390625 -47.515625 C 7.390625 -51.910156 7.617188 -56.066406 8.078125 -59.984375 C 8.546875 -63.910156 9.242188 -67.304688 10.171875 -70.171875 C 11.109375 -73.035156 12.242188 -75.332031 13.578125 -77.0625 C 14.910156 -78.789062 16.441406 -79.65625 18.171875 -79.65625 C 18.835938 -79.65625 19.535156 -79.585938 20.265625 -79.453125 C 20.992188 -79.316406 21.691406 -79.117188 22.359375 -78.859375 C 19.691406 -67.015625 18.359375 -54.703125 18.359375 -41.921875 Z M 27.953125 -104.609375 C 27.953125 -103.273438 27.6875 -101.875 27.15625 -100.40625 C 26.625 -98.945312 25.890625 -97.585938 24.953125 -96.328125 C 24.023438 -95.066406 22.894531 -94.035156 21.5625 -93.234375 C 20.226562 -92.429688 18.765625 -92.03125 17.171875 -92.03125 C 15.304688 -92.03125 13.941406 -92.59375 13.078125 -93.71875 C 12.210938 -94.851562 11.78125 -96.289062 11.78125 -98.03125 C 11.78125 -99.351562 12.046875 -100.742188 12.578125 -102.203125 C 13.109375 -103.671875 13.835938 -105.003906 14.765625 -106.203125 C 15.703125 -107.398438 16.832031 -108.398438 18.15625 -109.203125 C 19.488281 -110.003906 21.023438 -110.40625 22.765625 -110.40625 C 24.617188 -110.40625 25.945312 -109.867188 26.75 -108.796875 C 27.550781 -107.734375 27.953125 -106.335938 27.953125 -104.609375 Z M 27.953125 -104.609375 "/></g></g><g style="fill:#c1d29b;fill-opacity:1;"><g transform="translate(185.80068, 239.845316)"><path style="stroke:none" d="M 61.09375 -60.484375 C 61.09375 -56.234375 60.457031 -51.34375 59.1875 -45.8125 C 57.925781 -40.289062 56.234375 -34.734375 54.109375 -29.140625 C 55.703125 -28.347656 57.363281 -27.953125 59.09375 -27.953125 C 60.957031 -27.953125 62.6875 -28.414062 64.28125 -29.34375 C 65.882812 -30.28125 67.316406 -31.546875 68.578125 -33.140625 C 69.835938 -34.734375 70.96875 -36.53125 71.96875 -38.53125 C 72.96875 -40.53125 73.734375 -42.523438 74.265625 -44.515625 C 74.660156 -46.242188 74.988281 -47.972656 75.25 -49.703125 C 75.519531 -51.441406 75.789062 -52.972656 76.0625 -54.296875 C 76.332031 -55.628906 76.664062 -56.726562 77.0625 -57.59375 C 77.457031 -58.457031 77.921875 -58.890625 78.453125 -58.890625 C 79.648438 -58.890625 80.25 -57.425781 80.25 -54.5 C 80.25 -49.707031 79.648438 -45.445312 78.453125 -41.71875 C 77.253906 -38 75.65625 -34.804688 73.65625 -32.140625 C 71.664062 -29.484375 69.40625 -27.453125 66.875 -26.046875 C 64.351562 -24.648438 61.757812 -23.953125 59.09375 -23.953125 C 56.695312 -23.953125 54.566406 -24.421875 52.703125 -25.359375 C 51.242188 -21.890625 49.644531 -18.59375 47.90625 -15.46875 C 46.175781 -12.34375 44.378906 -9.613281 42.515625 -7.28125 C 40.660156 -4.957031 38.765625 -3.09375 36.828125 -1.6875 C 34.898438 -0.289062 33.003906 0.40625 31.140625 0.40625 C 23.023438 0.40625 18.101562 -3.253906 16.375 -10.578125 C 15.570312 -14.171875 14.703125 -19.09375 13.765625 -25.34375 C 12.835938 -31.601562 11.875 -38.191406 10.875 -45.109375 C 9.882812 -52.035156 8.789062 -58.660156 7.59375 -64.984375 C 6.394531 -71.304688 5.128906 -76.265625 3.796875 -79.859375 C 4.859375 -80.253906 5.890625 -80.519531 6.890625 -80.65625 C 7.890625 -80.789062 8.785156 -80.859375 9.578125 -80.859375 C 12.242188 -80.859375 14.34375 -80.054688 15.875 -78.453125 C 17.40625 -76.859375 18.503906 -74.53125 19.171875 -71.46875 C 19.828125 -68.9375 20.421875 -65.039062 20.953125 -59.78125 C 21.492188 -54.53125 22.0625 -48.910156 22.65625 -42.921875 C 23.257812 -36.929688 23.859375 -31.140625 24.453125 -25.546875 C 25.054688 -19.960938 25.625 -15.570312 26.15625 -12.375 C 26.550781 -9.84375 27.113281 -7.515625 27.84375 -5.390625 C 28.582031 -3.265625 29.75 -2.203125 31.34375 -2.203125 C 32.675781 -2.203125 34.003906 -2.929688 35.328125 -4.390625 C 36.660156 -5.859375 37.992188 -7.851562 39.328125 -10.375 C 40.660156 -12.90625 41.925781 -15.832031 43.125 -19.15625 C 44.320312 -22.488281 45.453125 -26.019531 46.515625 -29.75 C 43.847656 -32.539062 41.648438 -36.429688 39.921875 -41.421875 C 38.191406 -46.410156 37.328125 -52.703125 37.328125 -60.296875 C 37.328125 -66.679688 38.554688 -71.503906 41.015625 -74.765625 C 43.484375 -78.023438 46.25 -79.65625 49.3125 -79.65625 C 52.375 -79.65625 55.101562 -78.054688 57.5 -74.859375 C 59.894531 -71.671875 61.09375 -66.878906 61.09375 -60.484375 Z M 52.3125 -63.28125 C 52.3125 -66.75 51.875 -69.3125 51 -70.96875 C 50.132812 -72.632812 49.171875 -73.46875 48.109375 -73.46875 C 46.773438 -73.46875 45.578125 -72.335938 44.515625 -70.078125 C 43.453125 -67.816406 42.921875 -64.554688 42.921875 -60.296875 C 42.921875 -56.296875 43.316406 -52.035156 44.109375 -47.515625 C 44.910156 -42.992188 46.242188 -39 48.109375 -35.53125 C 49.441406 -40.59375 50.472656 -45.550781 51.203125 -50.40625 C 51.941406 -55.269531 52.3125 -59.5625 52.3125 -63.28125 Z M 52.3125 -63.28125 "/></g></g><g style="fill:#c1d29b;fill-opacity:1;"><g transform="translate(252.477862, 239.845316)"><path style="stroke:none" d="M 18.359375 -41.921875 C 18.359375 -36.734375 18.554688 -31.84375 18.953125 -27.25 C 19.359375 -22.65625 19.992188 -18.628906 20.859375 -15.171875 C 21.722656 -11.710938 22.820312 -8.984375 24.15625 -6.984375 C 25.488281 -4.992188 27.085938 -4 28.953125 -4 C 31.878906 -4 34.109375 -5.628906 35.640625 -8.890625 C 37.171875 -12.148438 38.398438 -15.738281 39.328125 -19.65625 C 40.265625 -23.582031 41.03125 -27.175781 41.625 -30.4375 C 42.21875 -33.707031 43.050781 -35.34375 44.125 -35.34375 C 44.914062 -35.34375 45.3125 -34.675781 45.3125 -33.34375 C 45.3125 -30.945312 45.078125 -27.914062 44.609375 -24.25 C 44.148438 -20.59375 43.285156 -17 42.015625 -13.46875 C 40.753906 -9.945312 39.054688 -6.921875 36.921875 -4.390625 C 34.796875 -1.859375 32.070312 -0.59375 28.75 -0.59375 C 25.019531 -0.59375 21.789062 -1.988281 19.0625 -4.78125 C 16.332031 -7.582031 14.101562 -11.242188 12.375 -15.765625 C 10.644531 -20.296875 9.378906 -25.320312 8.578125 -30.84375 C 7.785156 -36.363281 7.390625 -41.921875 7.390625 -47.515625 C 7.390625 -51.910156 7.617188 -56.066406 8.078125 -59.984375 C 8.546875 -63.910156 9.242188 -67.304688 10.171875 -70.171875 C 11.109375 -73.035156 12.242188 -75.332031 13.578125 -77.0625 C 14.910156 -78.789062 16.441406 -79.65625 18.171875 -79.65625 C 18.835938 -79.65625 19.535156 -79.585938 20.265625 -79.453125 C 20.992188 -79.316406 21.691406 -79.117188 22.359375 -78.859375 C 19.691406 -67.015625 18.359375 -54.703125 18.359375 -41.921875 Z M 27.953125 -104.609375 C 27.953125 -103.273438 27.6875 -101.875 27.15625 -100.40625 C 26.625 -98.945312 25.890625 -97.585938 24.953125 -96.328125 C 24.023438 -95.066406 22.894531 -94.035156 21.5625 -93.234375 C 20.226562 -92.429688 18.765625 -92.03125 17.171875 -92.03125 C 15.304688 -92.03125 13.941406 -92.59375 13.078125 -93.71875 C 12.210938 -94.851562 11.78125 -96.289062 11.78125 -98.03125 C 11.78125 -99.351562 12.046875 -100.742188 12.578125 -102.203125 C 13.109375 -103.671875 13.835938 -105.003906 14.765625 -106.203125 C 15.703125 -107.398438 16.832031 -108.398438 18.15625 -109.203125 C 19.488281 -110.003906 21.023438 -110.40625 22.765625 -110.40625 C 24.617188 -110.40625 25.945312 -109.867188 26.75 -108.796875 C 27.550781 -107.734375 27.953125 -106.335938 27.953125 -104.609375 Z M 27.953125 -104.609375 "/></g></g><g style="fill:#c1d29b;fill-opacity:1;"><g transform="translate(282.422696, 239.845316)"><path style="stroke:none" d="M 61.09375 -66.6875 C 61.09375 -63.625 60.925781 -60.660156 60.59375 -57.796875 C 60.257812 -54.929688 59.859375 -51.800781 59.390625 -48.40625 C 58.921875 -45.019531 58.519531 -41.226562 58.1875 -37.03125 C 57.863281 -32.84375 57.703125 -27.816406 57.703125 -21.953125 C 57.703125 -16.503906 58.097656 -11.984375 58.890625 -8.390625 C 59.691406 -4.796875 61.222656 -3 63.484375 -3 C 66.273438 -3 68.734375 -4.425781 70.859375 -7.28125 C 72.992188 -10.144531 74.789062 -13.273438 76.25 -16.671875 C 77.71875 -20.066406 79.019531 -23.191406 80.15625 -26.046875 C 81.289062 -28.910156 82.253906 -30.34375 83.046875 -30.34375 C 83.710938 -30.34375 84.046875 -29.941406 84.046875 -29.140625 C 84.046875 -26.742188 83.445312 -23.78125 82.25 -20.25 C 81.050781 -16.726562 79.453125 -13.335938 77.453125 -10.078125 C 75.460938 -6.816406 73.171875 -4.054688 70.578125 -1.796875 C 67.984375 0.460938 65.285156 1.59375 62.484375 1.59375 C 60.753906 1.59375 59.054688 1.394531 57.390625 1 C 55.734375 0.601562 54.238281 -0.328125 52.90625 -1.796875 C 51.570312 -3.265625 50.4375 -5.359375 49.5 -8.078125 C 48.570312 -10.804688 48.039062 -14.503906 47.90625 -19.171875 C 45.25 -12.515625 42.054688 -7.65625 38.328125 -4.59375 C 34.597656 -1.53125 30.804688 0 26.953125 0 C 23.492188 0 20.429688 -1.03125 17.765625 -3.09375 C 15.109375 -5.15625 12.878906 -7.882812 11.078125 -11.28125 C 9.285156 -14.675781 7.957031 -18.566406 7.09375 -22.953125 C 6.226562 -27.347656 5.796875 -31.875 5.796875 -36.53125 C 5.796875 -41.851562 6.359375 -47.109375 7.484375 -52.296875 C 8.617188 -57.492188 10.28125 -62.117188 12.46875 -66.171875 C 14.664062 -70.234375 17.460938 -73.53125 20.859375 -76.0625 C 24.253906 -78.59375 28.148438 -79.859375 32.546875 -79.859375 C 36.003906 -79.859375 38.929688 -78.925781 41.328125 -77.0625 C 43.722656 -75.195312 46.117188 -72.003906 48.515625 -67.484375 C 49.578125 -72.929688 52.238281 -75.65625 56.5 -75.65625 C 57.832031 -75.65625 59.226562 -75.390625 60.6875 -74.859375 C 60.820312 -73.398438 60.921875 -72.003906 60.984375 -70.671875 C 61.054688 -69.335938 61.09375 -68.007812 61.09375 -66.6875 Z M 16.765625 -34.9375 C 16.765625 -30.945312 17.03125 -27.117188 17.5625 -23.453125 C 18.09375 -19.796875 18.859375 -16.566406 19.859375 -13.765625 C 20.859375 -10.972656 22.125 -8.742188 23.65625 -7.078125 C 25.1875 -5.421875 27.015625 -4.59375 29.140625 -4.59375 C 31.941406 -4.59375 34.40625 -5.691406 36.53125 -7.890625 C 38.664062 -10.085938 40.492188 -12.816406 42.015625 -16.078125 C 43.546875 -19.335938 44.710938 -22.925781 45.515625 -26.84375 C 46.316406 -30.769531 46.71875 -34.46875 46.71875 -37.9375 C 46.71875 -41.789062 46.847656 -45.679688 47.109375 -49.609375 C 47.378906 -53.535156 47.710938 -57.429688 48.109375 -61.296875 C 45.453125 -66.210938 43.023438 -69.832031 40.828125 -72.15625 C 38.628906 -74.488281 36.132812 -75.65625 33.34375 -75.65625 C 30.675781 -75.65625 28.3125 -74.425781 26.25 -71.96875 C 24.1875 -69.507812 22.457031 -66.316406 21.0625 -62.390625 C 19.664062 -58.460938 18.597656 -54.101562 17.859375 -49.3125 C 17.128906 -44.519531 16.765625 -39.726562 16.765625 -34.9375 Z M 16.765625 -34.9375 "/></g></g><g style="fill:#ccbb94;fill-opacity:1;"><g transform="translate(61.467388, 271.570939)"><path style="stroke:none" d="M 8.890625 -8.796875 C 8.890625 -8.128906 8.742188 -7.503906 8.453125 -6.921875 C 8.171875 -6.335938 7.753906 -5.851562 7.203125 -5.46875 C 6.648438 -5.09375 5.972656 -4.90625 5.171875 -4.90625 L 3.21875 -4.90625 L 3.21875 0 L 1.421875 0 L 1.421875 -18.546875 L 5.171875 -18.546875 C 5.753906 -18.546875 6.332031 -18.425781 6.90625 -18.1875 C 7.476562 -17.945312 7.953125 -17.546875 8.328125 -16.984375 C 8.703125 -16.429688 8.890625 -15.691406 8.890625 -14.765625 Z M 7.203125 -14.765625 C 7.203125 -15.472656 7.023438 -16.019531 6.671875 -16.40625 C 6.316406 -16.789062 5.816406 -16.984375 5.171875 -16.984375 L 3.21875 -16.984375 L 3.21875 -6.5 L 5.171875 -6.5 C 5.679688 -6.5 6.144531 -6.695312 6.5625 -7.09375 C 6.988281 -7.5 7.203125 -8.066406 7.203125 -8.796875 Z M 7.203125 -14.765625 "/></g></g><g style="fill:#ccbb94;fill-opacity:1;"><g transform="translate(79.15612, 271.570939)"><path style="stroke:none" d="M 5.9375 -4.875 L 5.9375 -4.84375 L 3.25 -4.84375 L 2.484375 0 L 0.765625 0 L 3.625 -18.546875 L 5.515625 -18.546875 L 8.390625 0 L 6.671875 0 Z M 5.703125 -6.3125 L 5.3125 -9.0625 L 4.578125 -15.03125 L 3.8125 -9.0625 L 3.390625 -6.3125 Z M 5.703125 -6.3125 "/></g></g><g style="fill:#ccbb94;fill-opacity:1;"><g transform="translate(95.948923, 271.570939)"><path style="stroke:none" d="M 4.9375 0.203125 C 3.851562 0.203125 2.945312 -0.160156 2.21875 -0.890625 C 1.488281 -1.617188 1.132812 -2.59375 1.15625 -3.8125 L 1.15625 -5.734375 L 2.921875 -5.734375 L 2.921875 -3.8125 C 2.898438 -3.175781 3.0625 -2.609375 3.40625 -2.109375 C 3.75 -1.609375 4.257812 -1.359375 4.9375 -1.359375 C 5.625 -1.359375 6.132812 -1.585938 6.46875 -2.046875 C 6.800781 -2.515625 6.96875 -3.09375 6.96875 -3.78125 L 6.96875 -5.171875 C 6.96875 -5.617188 6.773438 -5.992188 6.390625 -6.296875 C 6.003906 -6.609375 5.5 -6.941406 4.875 -7.296875 C 3.832031 -7.921875 2.957031 -8.519531 2.25 -9.09375 C 1.539062 -9.664062 1.175781 -10.40625 1.15625 -11.3125 L 1.15625 -14.765625 C 1.15625 -15.867188 1.445312 -16.796875 2.03125 -17.546875 C 2.625 -18.304688 3.53125 -18.6875 4.75 -18.6875 C 5.851562 -18.6875 6.695312 -18.320312 7.28125 -17.59375 C 7.875 -16.863281 8.171875 -15.941406 8.171875 -14.828125 L 8.171875 -12.28125 L 6.5 -12.28125 L 6.5 -14.796875 C 6.5 -15.441406 6.363281 -15.984375 6.09375 -16.421875 C 5.832031 -16.867188 5.382812 -17.09375 4.75 -17.09375 C 4.238281 -17.09375 3.8125 -16.90625 3.46875 -16.53125 C 3.125 -16.15625 2.953125 -15.566406 2.953125 -14.765625 L 2.953125 -11.390625 C 2.992188 -10.898438 3.222656 -10.472656 3.640625 -10.109375 C 4.066406 -9.742188 4.65625 -9.335938 5.40625 -8.890625 C 5.9375 -8.578125 6.453125 -8.253906 6.953125 -7.921875 C 7.453125 -7.597656 7.863281 -7.222656 8.1875 -6.796875 C 8.519531 -6.378906 8.675781 -5.875 8.65625 -5.28125 L 8.65625 -3.78125 C 8.65625 -2.695312 8.351562 -1.757812 7.75 -0.96875 C 7.144531 -0.1875 6.207031 0.203125 4.9375 0.203125 Z M 4.9375 0.203125 "/></g></g><g style="fill:#ccbb94;fill-opacity:1;"><g transform="translate(113.372199, 271.570939)"><path style="stroke:none" d="M 7.234375 -17.03125 L 4.71875 -17.03125 L 4.71875 0 L 3.046875 0 L 3.046875 -17.03125 L 0.5 -17.03125 L 0.5 -18.546875 L 7.234375 -18.546875 Z M 7.234375 -17.03125 "/></g></g><g style="fill:#ccbb94;fill-opacity:1;"><g transform="translate(128.837708, 271.570939)"><path style="stroke:none" d="M 3.21875 -17.03125 L 3.21875 -6.40625 L 7.171875 -6.40625 L 7.171875 -4.84375 L 3.21875 -4.84375 L 3.21875 -1.59375 L 8.171875 -1.59375 L 8.171875 0 L 1.453125 0 L 1.453125 -18.546875 L 8.171875 -18.546875 L 8.171875 -17.03125 Z M 3.21875 -17.03125 "/></g></g><g style="fill:#ccbb94;fill-opacity:1;"><g transform="translate(145.464603, 271.570939)"><path style="stroke:none" d="M 7.171875 -1.5625 L 7.171875 0 L 1.453125 0 L 1.453125 -18.546875 L 3.1875 -18.546875 L 3.1875 -1.5625 Z M 7.171875 -1.5625 "/></g></g><g style="fill:#ccbb94;fill-opacity:1;"><g transform="translate(161.029648, 271.570939)"><path style="stroke:none" d="M 3.21875 -17.03125 L 3.21875 -6.40625 L 7.171875 -6.40625 L 7.171875 -4.84375 L 3.21875 -4.84375 L 3.21875 -1.59375 L 8.171875 -1.59375 L 8.171875 0 L 1.453125 0 L 1.453125 -18.546875 L 8.171875 -18.546875 L 8.171875 -17.03125 Z M 3.21875 -17.03125 "/></g></g><g style="fill:#ccbb94;fill-opacity:1;"><g transform="translate(177.656543, 271.570939)"><path style="stroke:none" d="M 8.765625 0 L 7 0 L 7 -3.390625 C 7 -3.785156 6.875 -4.109375 6.625 -4.359375 C 6.382812 -4.617188 6.046875 -4.75 5.609375 -4.75 L 3.21875 -4.75 L 3.21875 0 L 1.421875 0 L 1.421875 -18.546875 L 4.9375 -18.546875 C 5.519531 -18.546875 6.09375 -18.414062 6.65625 -18.15625 C 7.21875 -17.90625 7.6875 -17.503906 8.0625 -16.953125 C 8.4375 -16.398438 8.625 -15.648438 8.625 -14.703125 L 8.625 -8.625 C 8.625 -8.09375 8.539062 -7.566406 8.375 -7.046875 C 8.207031 -6.523438 7.875 -6.101562 7.375 -5.78125 C 7.851562 -5.53125 8.203125 -5.191406 8.421875 -4.765625 C 8.648438 -4.347656 8.765625 -3.890625 8.765625 -3.390625 Z M 3.21875 -6.3125 L 4.9375 -6.3125 C 5.382812 -6.3125 5.828125 -6.507812 6.265625 -6.90625 C 6.710938 -7.300781 6.9375 -7.875 6.9375 -8.625 L 6.9375 -14.703125 C 6.9375 -15.410156 6.753906 -15.96875 6.390625 -16.375 C 6.023438 -16.78125 5.539062 -16.984375 4.9375 -16.984375 L 3.21875 -16.984375 Z M 3.21875 -6.3125 "/></g></g><g style="fill:#ccbb94;fill-opacity:1;"><g transform="translate(195.245738, 271.570939)"><path style="stroke:none" d="M 1.453125 0 L 1.453125 -18.546875 L 3.1875 -18.546875 L 3.1875 0 Z M 1.453125 0 "/></g></g><g style="fill:#ccbb94;fill-opacity:1;"><g transform="translate(207.359804, 271.570939)"><path style="stroke:none" d="M 5.9375 -4.875 L 5.9375 -4.84375 L 3.25 -4.84375 L 2.484375 0 L 0.765625 0 L 3.625 -18.546875 L 5.515625 -18.546875 L 8.390625 0 L 6.671875 0 Z M 5.703125 -6.3125 L 5.3125 -9.0625 L 4.578125 -15.03125 L 3.8125 -9.0625 L 3.390625 -6.3125 Z M 5.703125 -6.3125 "/></g></g><g style="fill:#ccbb94;fill-opacity:1;"><g transform="translate(224.152606, 271.570939)"><path style="stroke:none" d=""/></g></g><g style="fill:#ccbb94;fill-opacity:1;"><g transform="translate(236.897133, 271.570939)"><path style="stroke:none" d="M 9.265625 -18.578125 L 5.671875 -4.671875 L 5.671875 0 L 3.953125 0 L 3.953125 -4.671875 L 0.5 -18.578125 L 2.1875 -18.578125 L 3.953125 -11.875 L 4.84375 -7.375 L 5.703125 -11.84375 L 7.4375 -18.578125 Z M 9.265625 -18.578125 "/></g></g><g style="fill:#ccbb94;fill-opacity:1;"><g transform="translate(254.187681, 271.570939)"><path style="stroke:none" d=""/></g></g><g style="fill:#ccbb94;fill-opacity:1;"><g transform="translate(266.932209, 271.570939)"><path style="stroke:none" d="M 5.046875 0.203125 C 3.847656 0.203125 2.910156 -0.164062 2.234375 -0.90625 C 1.566406 -1.65625 1.234375 -2.632812 1.234375 -3.84375 L 1.234375 -14.703125 C 1.234375 -15.898438 1.570312 -16.867188 2.25 -17.609375 C 2.9375 -18.347656 3.859375 -18.71875 5.015625 -18.71875 C 6.140625 -18.71875 7.03125 -18.363281 7.6875 -17.65625 C 8.351562 -16.945312 8.6875 -15.960938 8.6875 -14.703125 L 8.6875 -12.875 L 7.03125 -12.875 L 7.03125 -14.703125 C 7.03125 -15.429688 6.863281 -16.019531 6.53125 -16.46875 C 6.207031 -16.925781 5.710938 -17.15625 5.046875 -17.15625 C 4.472656 -17.15625 3.984375 -16.953125 3.578125 -16.546875 C 3.179688 -16.140625 2.984375 -15.523438 2.984375 -14.703125 L 2.984375 -3.84375 C 2.984375 -3.132812 3.15625 -2.550781 3.5 -2.09375 C 3.84375 -1.644531 4.359375 -1.421875 5.046875 -1.421875 C 6.347656 -1.421875 7 -2.21875 7 -3.8125 L 7 -5.515625 L 8.734375 -5.515625 L 8.734375 -3.8125 C 8.734375 -2.726562 8.429688 -1.785156 7.828125 -0.984375 C 7.234375 -0.191406 6.304688 0.203125 5.046875 0.203125 Z M 5.046875 0.203125 "/></g></g><g style="fill:#ccbb94;fill-opacity:1;"><g transform="translate(284.521416, 271.570939)"><path style="stroke:none" d="M 5.9375 -4.875 L 5.9375 -4.84375 L 3.25 -4.84375 L 2.484375 0 L 0.765625 0 L 3.625 -18.546875 L 5.515625 -18.546875 L 8.390625 0 L 6.671875 0 Z M 5.703125 -6.3125 L 5.3125 -9.0625 L 4.578125 -15.03125 L 3.8125 -9.0625 L 3.390625 -6.3125 Z M 5.703125 -6.3125 "/></g></g><g style="fill:#ccbb94;fill-opacity:1;"><g transform="translate(301.314206, 271.570939)"><path style="stroke:none" d="M 3.21875 -17.03125 L 3.21875 -6.40625 L 7.140625 -6.40625 L 7.140625 -4.8125 L 3.21875 -4.8125 L 3.21875 0 L 1.421875 0 L 1.421875 -18.546875 L 7.828125 -18.546875 L 7.828125 -17.03125 Z M 3.21875 -17.03125 "/></g></g><g style="fill:#ccbb94;fill-opacity:1;"><g transform="translate(317.410177, 271.570939)"><path style="stroke:none" d="M 5.171875 -20.046875 L 3.71875 -20.046875 L 5.015625 -22.90625 L 6.875 -22.90625 Z M 3.09375 -17.03125 L 3.09375 -6.40625 L 7.03125 -6.40625 L 7.03125 -4.84375 L 3.09375 -4.84375 L 3.09375 -1.59375 L 8.03125 -1.59375 L 8.03125 0 L 1.328125 0 L 1.328125 -18.546875 L 8.03125 -18.546875 L 8.03125 -17.03125 Z M 3.09375 -17.03125 "/></g></g></g></svg>