<svg xmlns="http://www.w3.org/2000/svg" viewBox="0 0 200 200" width="200" height="200">
  <!-- Fondo circular -->
  <circle cx="100" cy="100" r="95" fill="#f8efdc" stroke="#c1d29b" stroke-width="2"/>
  
  <!-- Círculo interior -->
  <circle cx="100" cy="100" r="75" fill="#c1d29b" opacity="0.8"/>
  
  <!-- Letra O estilizada -->
  <path d="M70 60 Q60 60 60 80 Q60 100 70 120 Q80 130 100 130 Q120 130 130 120 Q140 100 140 80 Q140 60 130 60 Q120 50 100 50 Q80 50 70 60 Z" 
        fill="#8b816a" stroke="#8b816a" stroke-width="2"/>
  
  <!-- Interior de la O -->
  <circle cx="100" cy="100" r="25" fill="#f8efdc"/>
  
  <!-- Detalles decorativos -->
  <circle cx="85" cy="85" r="3" fill="#c1d29b"/>
  <circle cx="115" cy="85" r="3" fill="#c1d29b"/>
  <circle cx="100" cy="115" r="3" fill="#c1d29b"/>
  
  <!-- Elementos decorativos adicionales -->
  <path d="M75 70 Q80 75 85 70" stroke="#8b816a" stroke-width="1.5" fill="none"/>
  <path d="M115 70 Q120 75 125 70" stroke="#8b816a" stroke-width="1.5" fill="none"/>
  
  <!-- Sombra sutil -->
  <circle cx="102" cy="102" r="95" fill="none" stroke="rgba(0,0,0,0.1)" stroke-width="1"/>
</svg> 